<svg width="452" height="24" viewBox="0 0 452 24" fill="none" xmlns="http://www.w3.org/2000/svg">
<g clip-path="url(#clip0_12292_68920)">
<path d="M0 8V16" stroke="#F8F8F8" stroke-opacity="0.5" stroke-width="1.5" stroke-linecap="round"/>
<path d="M4 8V16" stroke="#F8F8F8" stroke-opacity="0.5" stroke-width="1.5" stroke-linecap="round"/>
<path d="M8 4V20" stroke="#F8F8F8" stroke-opacity="0.5" stroke-width="1.5" stroke-linecap="round"/>
<path d="M12 2V22" stroke="#F8F8F8" stroke-opacity="0.5" stroke-width="1.5" stroke-linecap="round"/>
<path d="M16 8V16" stroke="#F8F8F8" stroke-opacity="0.5" stroke-width="1.5" stroke-linecap="round"/>
<path d="M20 8V16" stroke="#F8F8F8" stroke-opacity="0.5" stroke-width="1.5" stroke-linecap="round"/>
<path d="M24 8V16" stroke="#F8F8F8" stroke-opacity="0.5" stroke-width="1.5" stroke-linecap="round"/>
<path d="M28 1.5V22.5" stroke="#F8F8F8" stroke-opacity="0.5" stroke-width="1.5" stroke-linecap="round"/>
<path d="M32 4V20" stroke="#F8F8F8" stroke-opacity="0.5" stroke-width="1.5" stroke-linecap="round"/>
<path d="M36 4V20" stroke="#F8F8F8" stroke-opacity="0.5" stroke-width="1.5" stroke-linecap="round"/>
<path d="M40 4V20" stroke="#F8F8F8" stroke-opacity="0.5" stroke-width="1.5" stroke-linecap="round"/>
<path d="M44 4V20" stroke="#F8F8F8" stroke-opacity="0.5" stroke-width="1.5" stroke-linecap="round"/>
<path d="M48 7V17" stroke="#F8F8F8" stroke-opacity="0.5" stroke-width="1.5" stroke-linecap="round"/>
<path d="M52 7V17" stroke="#F8F8F8" stroke-opacity="0.5" stroke-width="1.5" stroke-linecap="round"/>
<path d="M56 7V17" stroke="#F8F8F8" stroke-opacity="0.5" stroke-width="1.5" stroke-linecap="round"/>
<path d="M60 10V14" stroke="#F8F8F8" stroke-opacity="0.5" stroke-width="1.5" stroke-linecap="round"/>
<path d="M64 10V14" stroke="#F8F8F8" stroke-opacity="0.5" stroke-width="1.5" stroke-linecap="round"/>
<path d="M68 10V14" stroke="#F8F8F8" stroke-opacity="0.5" stroke-width="1.5" stroke-linecap="round"/>
<path d="M72 10V14" stroke="#F8F8F8" stroke-opacity="0.5" stroke-width="1.5" stroke-linecap="round"/>
<path d="M76 10V14" stroke="#F8F8F8" stroke-opacity="0.5" stroke-width="1.5" stroke-linecap="round"/>
<path d="M80 10V14" stroke="#F8F8F8" stroke-opacity="0.5" stroke-width="1.5" stroke-linecap="round"/>
<path d="M84 10V14" stroke="#F8F8F8" stroke-opacity="0.5" stroke-width="1.5" stroke-linecap="round"/>
<path d="M88 10V14" stroke="#F8F8F8" stroke-opacity="0.5" stroke-width="1.5" stroke-linecap="round"/>
<path d="M92 10V14" stroke="#F8F8F8" stroke-opacity="0.5" stroke-width="1.5" stroke-linecap="round"/>
<path d="M96 10V14" stroke="#F8F8F8" stroke-opacity="0.5" stroke-width="1.5" stroke-linecap="round"/>
<path d="M100 10V14" stroke="#F8F8F8" stroke-opacity="0.5" stroke-width="1.5" stroke-linecap="round"/>
<path d="M104 10V14" stroke="#F8F8F8" stroke-opacity="0.5" stroke-width="1.5" stroke-linecap="round"/>
<path d="M108 10V14" stroke="#F8F8F8" stroke-opacity="0.5" stroke-width="1.5" stroke-linecap="round"/>
<path d="M112 10V14" stroke="#F8F8F8" stroke-opacity="0.5" stroke-width="1.5" stroke-linecap="round"/>
<path d="M116 10V14" stroke="#F8F8F8" stroke-opacity="0.5" stroke-width="1.5" stroke-linecap="round"/>
<path d="M120 10V14" stroke="#F8F8F8" stroke-opacity="0.5" stroke-width="1.5" stroke-linecap="round"/>
<path d="M124 10V14" stroke="#F8F8F8" stroke-opacity="0.5" stroke-width="1.5" stroke-linecap="round"/>
<path d="M128 10V14" stroke="#F8F8F8" stroke-opacity="0.5" stroke-width="1.5" stroke-linecap="round"/>
<path d="M132 10V14" stroke="#F8F8F8" stroke-opacity="0.5" stroke-width="1.5" stroke-linecap="round"/>
<path d="M136 9V15" stroke="#F8F8F8" stroke-opacity="0.5" stroke-width="1.5" stroke-linecap="round"/>
<path d="M140 9V15" stroke="#F8F8F8" stroke-opacity="0.5" stroke-width="1.5" stroke-linecap="round"/>
<path d="M144 9V15" stroke="#F8F8F8" stroke-opacity="0.5" stroke-width="1.5" stroke-linecap="round"/>
<path d="M148 9V15" stroke="#F8F8F8" stroke-opacity="0.5" stroke-width="1.5" stroke-linecap="round"/>
<path d="M152 9V15" stroke="#F8F8F8" stroke-opacity="0.5" stroke-width="1.5" stroke-linecap="round"/>
<path d="M156 9V15" stroke="#F8F8F8" stroke-opacity="0.5" stroke-width="1.5" stroke-linecap="round"/>
<path d="M160 6V18" stroke="#F8F8F8" stroke-opacity="0.5" stroke-width="1.5" stroke-linecap="round"/>
<path d="M164 6V18" stroke="#F8F8F8" stroke-opacity="0.5" stroke-width="1.5" stroke-linecap="round"/>
<path d="M168 0V24" stroke="#F8F8F8" stroke-opacity="0.5" stroke-width="1.5" stroke-linecap="round"/>
<path d="M172 11V13" stroke="#F8F8F8" stroke-opacity="0.5" stroke-width="1.5" stroke-linecap="round"/>
<path d="M176 6V18" stroke="#F8F8F8" stroke-opacity="0.5" stroke-width="1.5" stroke-linecap="round"/>
<path d="M180 9V15" stroke="#F8F8F8" stroke-opacity="0.5" stroke-width="1.5" stroke-linecap="round"/>
<path d="M184 11V13" stroke="#F8F8F8" stroke-opacity="0.5" stroke-width="1.5" stroke-linecap="round"/>
<path d="M188 11V13" stroke="#F8F8F8" stroke-opacity="0.5" stroke-width="1.5" stroke-linecap="round"/>
<path d="M192 9V15" stroke="#F8F8F8" stroke-opacity="0.5" stroke-width="1.5" stroke-linecap="round"/>
<path d="M196 9V15" stroke="#F8F8F8" stroke-opacity="0.5" stroke-width="1.5" stroke-linecap="round"/>
<path d="M200 10V14" stroke="#F8F8F8" stroke-opacity="0.5" stroke-width="1.5" stroke-linecap="round"/>
<path d="M204 10V14" stroke="#F8F8F8" stroke-opacity="0.5" stroke-width="1.5" stroke-linecap="round"/>
<path d="M208 11V13" stroke="#F8F8F8" stroke-opacity="0.5" stroke-width="1.5" stroke-linecap="round"/>
<path d="M212 11V13" stroke="#F8F8F8" stroke-opacity="0.5" stroke-width="1.5" stroke-linecap="round"/>
<path d="M216 11V13" stroke="#F8F8F8" stroke-opacity="0.5" stroke-width="1.5" stroke-linecap="round"/>
<path d="M220 11V13" stroke="#F8F8F8" stroke-opacity="0.5" stroke-width="1.5" stroke-linecap="round"/>
<path d="M224 11V13" stroke="#F8F8F8" stroke-opacity="0.5" stroke-width="1.5" stroke-linecap="round"/>
<path d="M228 11V13" stroke="#F8F8F8" stroke-opacity="0.5" stroke-width="1.5" stroke-linecap="round"/>
<path d="M232 11V13" stroke="#F8F8F8" stroke-opacity="0.5" stroke-width="1.5" stroke-linecap="round"/>
<path d="M236 11V13" stroke="#F8F8F8" stroke-opacity="0.5" stroke-width="1.5" stroke-linecap="round"/>
<path d="M240 11V13" stroke="#F8F8F8" stroke-opacity="0.5" stroke-width="1.5" stroke-linecap="round"/>
<path d="M244 11V13" stroke="#F8F8F8" stroke-opacity="0.5" stroke-width="1.5" stroke-linecap="round"/>
<path d="M248 11V13" stroke="#F8F8F8" stroke-opacity="0.5" stroke-width="1.5" stroke-linecap="round"/>
<path d="M252 11V13" stroke="#F8F8F8" stroke-opacity="0.5" stroke-width="1.5" stroke-linecap="round"/>
<path d="M256 11V13" stroke="#F8F8F8" stroke-opacity="0.5" stroke-width="1.5" stroke-linecap="round"/>
<path d="M260 11V13" stroke="#F8F8F8" stroke-opacity="0.5" stroke-width="1.5" stroke-linecap="round"/>
<path d="M264 11.5V12.5" stroke="#F8F8F8" stroke-opacity="0.5" stroke-width="1.5" stroke-linecap="round"/>
<path d="M268 11.5V12.5" stroke="#F8F8F8" stroke-opacity="0.5" stroke-width="1.5" stroke-linecap="round"/>
<path d="M272 11.5V12.5" stroke="#F8F8F8" stroke-opacity="0.5" stroke-width="1.5" stroke-linecap="round"/>
<path d="M276 10V14" stroke="#F8F8F8" stroke-opacity="0.5" stroke-width="1.5" stroke-linecap="round"/>
<path d="M280 10V14" stroke="#F8F8F8" stroke-opacity="0.5" stroke-width="1.5" stroke-linecap="round"/>
<path d="M284 10V14" stroke="#F8F8F8" stroke-opacity="0.5" stroke-width="1.5" stroke-linecap="round"/>
<path d="M288 10V14" stroke="#F8F8F8" stroke-opacity="0.5" stroke-width="1.5" stroke-linecap="round"/>
<path d="M292 6V18" stroke="#F8F8F8" stroke-opacity="0.5" stroke-width="1.5" stroke-linecap="round"/>
<path d="M296 4V20" stroke="#F8F8F8" stroke-opacity="0.5" stroke-width="1.5" stroke-linecap="round"/>
<path d="M300 4V20" stroke="#F8F8F8" stroke-opacity="0.5" stroke-width="1.5" stroke-linecap="round"/>
<path d="M304 6V18" stroke="#F8F8F8" stroke-opacity="0.5" stroke-width="1.5" stroke-linecap="round"/>
<path d="M308 9V15" stroke="#F8F8F8" stroke-opacity="0.5" stroke-width="1.5" stroke-linecap="round"/>
<path d="M312 9V15" stroke="#F8F8F8" stroke-opacity="0.5" stroke-width="1.5" stroke-linecap="round"/>
<path d="M316 9V15" stroke="#F8F8F8" stroke-opacity="0.5" stroke-width="1.5" stroke-linecap="round"/>
<path d="M320 10V14" stroke="#F8F8F8" stroke-opacity="0.5" stroke-width="1.5" stroke-linecap="round"/>
<path d="M324 10V14" stroke="#F8F8F8" stroke-opacity="0.5" stroke-width="1.5" stroke-linecap="round"/>
<path d="M328 10V14" stroke="#F8F8F8" stroke-opacity="0.5" stroke-width="1.5" stroke-linecap="round"/>
<path d="M332 10V14" stroke="#F8F8F8" stroke-opacity="0.5" stroke-width="1.5" stroke-linecap="round"/>
<path d="M336 10V14" stroke="#F8F8F8" stroke-opacity="0.5" stroke-width="1.5" stroke-linecap="round"/>
<path d="M340 10V14" stroke="#F8F8F8" stroke-opacity="0.5" stroke-width="1.5" stroke-linecap="round"/>
<path d="M344 10V14" stroke="#F8F8F8" stroke-opacity="0.5" stroke-width="1.5" stroke-linecap="round"/>
<path d="M348 10V14" stroke="#F8F8F8" stroke-opacity="0.5" stroke-width="1.5" stroke-linecap="round"/>
<path d="M352 6V18" stroke="#F8F8F8" stroke-opacity="0.5" stroke-width="1.5" stroke-linecap="round"/>
<path d="M356 6V18" stroke="#F8F8F8" stroke-opacity="0.5" stroke-width="1.5" stroke-linecap="round"/>
<path d="M360 4V20" stroke="#F8F8F8" stroke-opacity="0.5" stroke-width="1.5" stroke-linecap="round"/>
<path d="M364 6V18" stroke="#F8F8F8" stroke-opacity="0.5" stroke-width="1.5" stroke-linecap="round"/>
<path d="M368 10V14" stroke="#F8F8F8" stroke-opacity="0.5" stroke-width="1.5" stroke-linecap="round"/>
<path d="M372 10V14" stroke="#F8F8F8" stroke-opacity="0.5" stroke-width="1.5" stroke-linecap="round"/>
<path d="M376 10V14" stroke="#F8F8F8" stroke-opacity="0.5" stroke-width="1.5" stroke-linecap="round"/>
<path d="M380 10V14" stroke="#F8F8F8" stroke-opacity="0.5" stroke-width="1.5" stroke-linecap="round"/>
<path d="M384 10V14" stroke="#F8F8F8" stroke-opacity="0.5" stroke-width="1.5" stroke-linecap="round"/>
<path d="M388 10V14" stroke="#F8F8F8" stroke-opacity="0.5" stroke-width="1.5" stroke-linecap="round"/>
<path d="M392 10V14" stroke="#F8F8F8" stroke-opacity="0.5" stroke-width="1.5" stroke-linecap="round"/>
<path d="M396 11.5V12.5" stroke="#F8F8F8" stroke-opacity="0.5" stroke-width="1.5" stroke-linecap="round"/>
<path d="M400 11.5V12.5" stroke="#F8F8F8" stroke-opacity="0.5" stroke-width="1.5" stroke-linecap="round"/>
<path d="M404 11.5V12.5" stroke="#F8F8F8" stroke-opacity="0.5" stroke-width="1.5" stroke-linecap="round"/>
<path d="M408 11.5V12.5" stroke="#F8F8F8" stroke-opacity="0.5" stroke-width="1.5" stroke-linecap="round"/>
<path d="M412 11.5V12.5" stroke="#F8F8F8" stroke-opacity="0.5" stroke-width="1.5" stroke-linecap="round"/>
<path d="M416 11.5V12.5" stroke="#F8F8F8" stroke-opacity="0.5" stroke-width="1.5" stroke-linecap="round"/>
<path d="M420 11.5V12.5" stroke="#F8F8F8" stroke-opacity="0.5" stroke-width="1.5" stroke-linecap="round"/>
<path d="M424 11.5V12.5" stroke="#F8F8F8" stroke-opacity="0.5" stroke-width="1.5" stroke-linecap="round"/>
<path d="M428 11.5V12.5" stroke="#F8F8F8" stroke-opacity="0.5" stroke-width="1.5" stroke-linecap="round"/>
<path d="M432 11.5V12.5" stroke="#F8F8F8" stroke-opacity="0.5" stroke-width="1.5" stroke-linecap="round"/>
<path d="M436 11.5V12.5" stroke="#F8F8F8" stroke-opacity="0.5" stroke-width="1.5" stroke-linecap="round"/>
<path d="M440 11.5V12.5" stroke="#F8F8F8" stroke-opacity="0.5" stroke-width="1.5" stroke-linecap="round"/>
<path d="M444 11.5V12.5" stroke="#F8F8F8" stroke-opacity="0.5" stroke-width="1.5" stroke-linecap="round"/>
<path d="M448 11.5V12.5" stroke="#F8F8F8" stroke-opacity="0.5" stroke-width="1.5" stroke-linecap="round"/>
<path d="M452 10V14" stroke="#F8F8F8" stroke-opacity="0.5" stroke-width="1.5" stroke-linecap="round"/>
</g>
<defs>
<clipPath id="clip0_12292_68920">
<rect width="452" height="24" fill="white"/>
</clipPath>
</defs>
</svg>
