<svg width="144" height="79" viewBox="0 0 144 79" fill="none" xmlns="http://www.w3.org/2000/svg">
<circle opacity="0.5" cx="28.8956" cy="8.30064" r="0.5" transform="rotate(-143.487 28.8956 8.30064)" fill="url(#paint0_linear_12564_166961)"/>
<circle opacity="0.5" cx="16.8956" cy="51.3006" r="0.5" transform="rotate(-143.487 16.8956 51.3006)" fill="url(#paint1_linear_12564_166961)"/>
<circle opacity="0.5" cx="58.8956" cy="17.3006" r="0.5" transform="rotate(-143.487 58.8956 17.3006)" fill="url(#paint2_linear_12564_166961)"/>
<circle opacity="0.5" cx="140" cy="53" r="4" transform="rotate(180 140 53)" fill="url(#paint3_linear_12564_166961)"/>
<circle cx="60" cy="49" r="1" transform="rotate(180 60 49)" fill="url(#paint4_linear_12564_166961)"/>
<circle opacity="0.5" cx="30.5901" cy="36.1101" r="1" transform="rotate(130.534 30.5901 36.1101)" fill="url(#paint5_linear_12564_166961)"/>
<circle opacity="0.5" cx="3.59008" cy="28.1101" r="1" transform="rotate(130.534 3.59008 28.1101)" fill="url(#paint6_linear_12564_166961)"/>
<circle opacity="0.5" cx="93.5901" cy="-0.889883" r="1" transform="rotate(130.534 93.5901 -0.889883)" fill="url(#paint7_linear_12564_166961)"/>
<circle opacity="0.5" cx="49" cy="33" r="1" transform="rotate(180 49 33)" fill="url(#paint8_linear_12564_166961)"/>
<circle opacity="0.5" cx="20" cy="23" r="1" transform="rotate(180 20 23)" fill="url(#paint9_linear_12564_166961)"/>
<circle opacity="0.5" cx="3.67393" cy="75.5293" r="2.5" transform="rotate(-124.011 3.67393 75.5293)" fill="url(#paint10_linear_12564_166961)"/>
<circle cx="31.5" cy="22.5" r="1.5" transform="rotate(180 31.5 22.5)" fill="url(#paint11_linear_12564_166961)"/>
<defs>
<linearGradient id="paint0_linear_12564_166961" x1="29.229" y1="7.4673" x2="28.6456" y2="8.7173" gradientUnits="userSpaceOnUse">
<stop offset="0.173306" stop-color="white" stop-opacity="0"/>
<stop offset="1" stop-color="white" stop-opacity="0.3"/>
</linearGradient>
<linearGradient id="paint1_linear_12564_166961" x1="17.229" y1="50.4673" x2="16.6456" y2="51.7173" gradientUnits="userSpaceOnUse">
<stop offset="0.173306" stop-color="white" stop-opacity="0"/>
<stop offset="1" stop-color="white" stop-opacity="0.3"/>
</linearGradient>
<linearGradient id="paint2_linear_12564_166961" x1="59.229" y1="16.4673" x2="58.6456" y2="17.7173" gradientUnits="userSpaceOnUse">
<stop offset="0.173306" stop-color="white" stop-opacity="0"/>
<stop offset="1" stop-color="white" stop-opacity="0.3"/>
</linearGradient>
<linearGradient id="paint3_linear_12564_166961" x1="142.667" y1="49" x2="136" y2="58.3333" gradientUnits="userSpaceOnUse">
<stop stop-color="white" stop-opacity="0.3"/>
<stop offset="0.826694" stop-color="white" stop-opacity="0"/>
</linearGradient>
<linearGradient id="paint4_linear_12564_166961" x1="60.6667" y1="47.3333" x2="59.5" y2="49.8333" gradientUnits="userSpaceOnUse">
<stop offset="0.173306" stop-color="white" stop-opacity="0"/>
<stop offset="1" stop-color="white" stop-opacity="0.3"/>
</linearGradient>
<linearGradient id="paint5_linear_12564_166961" x1="31.2567" y1="34.4435" x2="30.0901" y2="36.9435" gradientUnits="userSpaceOnUse">
<stop offset="0.173306" stop-color="white" stop-opacity="0"/>
<stop offset="1" stop-color="white" stop-opacity="0.3"/>
</linearGradient>
<linearGradient id="paint6_linear_12564_166961" x1="4.25675" y1="26.4435" x2="3.09008" y2="28.9435" gradientUnits="userSpaceOnUse">
<stop offset="0.173306" stop-color="white" stop-opacity="0"/>
<stop offset="1" stop-color="white" stop-opacity="0.3"/>
</linearGradient>
<linearGradient id="paint7_linear_12564_166961" x1="94.2567" y1="-2.55655" x2="93.0901" y2="-0.0565493" gradientUnits="userSpaceOnUse">
<stop offset="0.173306" stop-color="white" stop-opacity="0"/>
<stop offset="1" stop-color="white" stop-opacity="0.3"/>
</linearGradient>
<linearGradient id="paint8_linear_12564_166961" x1="49.6667" y1="31.3333" x2="48.5" y2="33.8333" gradientUnits="userSpaceOnUse">
<stop offset="0.173306" stop-color="white" stop-opacity="0"/>
<stop offset="1" stop-color="white" stop-opacity="0.3"/>
</linearGradient>
<linearGradient id="paint9_linear_12564_166961" x1="20.6667" y1="21.3333" x2="19.5" y2="23.8333" gradientUnits="userSpaceOnUse">
<stop offset="0.173306" stop-color="white" stop-opacity="0"/>
<stop offset="1" stop-color="white" stop-opacity="0.3"/>
</linearGradient>
<linearGradient id="paint10_linear_12564_166961" x1="5.3406" y1="73.0293" x2="1.17393" y2="78.8626" gradientUnits="userSpaceOnUse">
<stop stop-color="white" stop-opacity="0.3"/>
<stop offset="0.826694" stop-color="white" stop-opacity="0"/>
</linearGradient>
<linearGradient id="paint11_linear_12564_166961" x1="32.5" y1="20" x2="30.75" y2="23.75" gradientUnits="userSpaceOnUse">
<stop stop-color="white" stop-opacity="0.3"/>
<stop offset="0.826694" stop-color="white" stop-opacity="0"/>
</linearGradient>
</defs>
</svg>
