<svg width="1132" height="396" viewBox="0 0 1132 396" fill="none" xmlns="http://www.w3.org/2000/svg">
<circle cx="130.512" cy="123.512" r="0.511892" fill="white" fill-opacity="0.5"/>
<circle cx="172.594" cy="243.594" r="0.594269" fill="white" fill-opacity="0.5"/>
<circle cx="646.613" cy="32.613" r="0.612987" fill="white" fill-opacity="0.5"/>
<circle cx="1020.5" cy="121.5" r="0.5" fill="white" fill-opacity="0.3"/>
<circle cx="429.5" cy="334.5" r="0.5" fill="white" fill-opacity="0.4"/>
<circle cx="498.502" cy="261.502" r="0.502405" fill="white" fill-opacity="0.4"/>
<circle cx="298.749" cy="313.749" r="0.748903" fill="white" fill-opacity="0.4"/>
<circle cx="1117.5" cy="111.5" r="0.5" fill="white" fill-opacity="0.6"/>
<circle cx="713.698" cy="18.6982" r="0.698193" fill="white" fill-opacity="0.5"/>
<circle cx="235.5" cy="14.5" r="0.5" fill="white" fill-opacity="0.5"/>
<circle cx="339.5" cy="14.5" r="0.5" fill="white" fill-opacity="0.3"/>
<circle cx="248.5" cy="202.5" r="0.5" fill="white" fill-opacity="0.4"/>
<circle cx="413.69" cy="345.69" r="0.68966" fill="white" fill-opacity="0.5"/>
<circle cx="770.5" cy="42.5" r="0.5" fill="white" fill-opacity="0.4"/>
<circle cx="163.5" cy="38.5" r="0.5" fill="white" fill-opacity="0.4"/>
<circle cx="859.628" cy="277.628" r="0.628323" fill="white" fill-opacity="0.4"/>
<circle cx="802.678" cy="298.678" r="0.678263" fill="white" fill-opacity="0.6"/>
<circle cx="749.5" cy="145.5" r="0.5" fill="white" fill-opacity="0.5"/>
<circle cx="734.648" cy="75.648" r="0.648008" fill="white" fill-opacity="0.5"/>
<circle cx="991.5" cy="326.5" r="0.5" fill="white" fill-opacity="0.5"/>
<circle cx="16.5" cy="391.5" r="0.5" fill="white" fill-opacity="0.6"/>
<circle cx="111.558" cy="333.558" r="0.557522" fill="white" fill-opacity="0.3"/>
<circle cx="394.5" cy="292.5" r="0.5" fill="white" fill-opacity="0.5"/>
<circle cx="848.511" cy="282.511" r="0.510802" fill="white" fill-opacity="0.5"/>
<circle cx="970.5" cy="179.5" r="0.5" fill="white" fill-opacity="0.5"/>
<circle cx="163.5" cy="232.5" r="0.5" fill="white" fill-opacity="0.4"/>
<circle cx="297.5" cy="126.5" r="0.5" fill="white" fill-opacity="0.6"/>
<circle cx="121.5" cy="186.5" r="0.5" fill="white" fill-opacity="0.4"/>
<circle cx="799.5" cy="163.5" r="0.5" fill="white" fill-opacity="0.5"/>
<circle cx="579.5" cy="232.5" r="0.5" fill="white" fill-opacity="0.6"/>
<circle cx="119.541" cy="99.541" r="0.54104" fill="white" fill-opacity="0.6"/>
<circle cx="799.5" cy="280.5" r="0.5" fill="white" fill-opacity="0.5"/>
<circle cx="895.5" cy="233.5" r="0.5" fill="white" fill-opacity="0.3"/>
<circle cx="416.607" cy="196.607" r="0.60713" fill="white" fill-opacity="0.4"/>
<circle cx="111.633" cy="348.633" r="0.633342" fill="white" fill-opacity="0.5"/>
<circle cx="888.64" cy="346.64" r="0.640076" fill="white" fill-opacity="0.3"/>
<circle cx="745.631" cy="350.631" r="0.630537" fill="white" fill-opacity="0.5"/>
<circle cx="940.5" cy="139.5" r="0.5" fill="white" fill-opacity="0.6"/>
<circle cx="161.682" cy="307.682" r="0.682499" fill="white" fill-opacity="0.6"/>
<circle cx="267.583" cy="243.583" r="0.583016" fill="white" fill-opacity="0.5"/>
<circle cx="89.5104" cy="107.51" r="0.510443" fill="white" fill-opacity="0.6"/>
<circle cx="96.5807" cy="183.581" r="0.580658" fill="white" fill-opacity="0.4"/>
<circle cx="51.6511" cy="269.651" r="0.65108" fill="white" fill-opacity="0.5"/>
<circle cx="319.665" cy="222.665" r="0.665193" fill="white" fill-opacity="0.5"/>
<circle cx="124.56" cy="72.5605" r="0.560482" fill="white" fill-opacity="0.4"/>
<circle cx="502.561" cy="299.561" r="0.560922" fill="white" fill-opacity="0.6"/>
<circle cx="863.5" cy="186.5" r="0.5" fill="white" fill-opacity="0.4"/>
<circle cx="601.53" cy="158.53" r="0.529863" fill="white" fill-opacity="0.5"/>
<circle cx="336.5" cy="184.5" r="0.5" fill="white" fill-opacity="0.4"/>
<circle cx="955.717" cy="11.7174" r="0.717357" fill="white" fill-opacity="0.3"/>
<circle cx="952.731" cy="150.731" r="0.731388" fill="white" fill-opacity="0.4"/>
<circle cx="814.664" cy="352.664" r="0.66439" fill="white" fill-opacity="0.4"/>
<circle cx="243.5" cy="289.5" r="0.5" fill="white" fill-opacity="0.3"/>
<circle cx="1052.58" cy="201.58" r="0.580235" fill="white" fill-opacity="0.5"/>
<circle cx="10.6038" cy="273.604" r="0.603756" fill="white" fill-opacity="0.5"/>
<circle cx="939.5" cy="221.5" r="0.5" fill="white" fill-opacity="0.5"/>
<circle cx="968.5" cy="24.5" r="0.5" fill="white" fill-opacity="0.5"/>
<circle cx="810.58" cy="223.58" r="0.580391" fill="white" fill-opacity="0.4"/>
<circle cx="243.73" cy="123.73" r="0.730357" fill="white" fill-opacity="0.5"/>
<circle cx="297.63" cy="301.63" r="0.630264" fill="white" fill-opacity="0.4"/>
<circle cx="518.505" cy="382.505" r="0.50523" fill="white" fill-opacity="0.4"/>
<circle cx="139.5" cy="226.5" r="0.5" fill="white" fill-opacity="0.5"/>
<circle cx="40.6251" cy="184.625" r="0.625077" fill="white" fill-opacity="0.3"/>
<circle cx="780.512" cy="87.5121" r="0.51211" fill="white" fill-opacity="0.4"/>
<circle cx="334.5" cy="246.5" r="0.5" fill="white" fill-opacity="0.5"/>
<circle cx="733.5" cy="269.5" r="0.5" fill="white" fill-opacity="0.4"/>
<circle cx="1076.52" cy="259.524" r="0.52428" fill="white" fill-opacity="0.4"/>
<circle cx="261.5" cy="9.5" r="0.5" fill="white" fill-opacity="0.3"/>
<circle cx="644.504" cy="315.504" r="0.503817" fill="white" fill-opacity="0.5"/>
<circle cx="511.677" cy="83.6768" r="0.676812" fill="white" fill-opacity="0.5"/>
<circle cx="838.5" cy="11.5" r="0.5" fill="white" fill-opacity="0.6"/>
<circle cx="1.52229" cy="344.522" r="0.522291" fill="white" fill-opacity="0.4"/>
<circle cx="930.5" cy="296.5" r="0.5" fill="white" fill-opacity="0.5"/>
<circle cx="1065.6" cy="333.596" r="0.596461" fill="white" fill-opacity="0.4"/>
<circle cx="638.5" cy="336.5" r="0.5" fill="white" fill-opacity="0.4"/>
<circle cx="938.576" cy="104.576" r="0.576308" fill="white" fill-opacity="0.5"/>
<circle cx="961.731" cy="183.731" r="0.731054" fill="white" fill-opacity="0.4"/>
<circle cx="484.608" cy="62.6081" r="0.608071" fill="white" fill-opacity="0.5"/>
<circle cx="698.704" cy="83.7043" r="0.704303" fill="white" fill-opacity="0.4"/>
<circle cx="116.576" cy="328.576" r="0.575576" fill="white" fill-opacity="0.6"/>
<g filter="url(#filter0_d_7677_106533)">
<circle cx="1116.5" cy="112.5" r="0.5" fill="white" fill-opacity="0.6" shape-rendering="crispEdges"/>
</g>
<g filter="url(#filter1_d_7677_106533)">
<circle cx="38.6467" cy="84.6467" r="0.646656" fill="white" fill-opacity="0.6" shape-rendering="crispEdges"/>
</g>
<circle cx="60.5" cy="346.5" r="0.5" fill="white" fill-opacity="0.3"/>
<circle cx="544.681" cy="110.681" r="0.681141" fill="white" fill-opacity="0.3"/>
<circle cx="882.5" cy="197.5" r="0.5" fill="white" fill-opacity="0.4"/>
<circle cx="174.5" cy="168.5" r="0.5" fill="white" fill-opacity="0.6"/>
<circle cx="387.5" cy="231.5" r="0.5" fill="white" fill-opacity="0.4"/>
<circle cx="1116.7" cy="146.704" r="0.703602" fill="white" fill-opacity="0.5"/>
<circle cx="543.5" cy="16.5" r="0.5" fill="white" fill-opacity="0.3"/>
<circle cx="102.567" cy="118.567" r="0.567091" fill="white" fill-opacity="0.5"/>
<circle cx="677.5" cy="329.5" r="0.5" fill="white" fill-opacity="0.4"/>
<circle cx="90.5" cy="7.5" r="0.5" fill="white" fill-opacity="0.3"/>
<circle cx="983.716" cy="174.716" r="0.71577" fill="white" fill-opacity="0.6"/>
<circle cx="579.5" cy="4.5" r="0.5" fill="white" fill-opacity="0.5"/>
<circle cx="848.5" cy="255.5" r="0.5" fill="white" fill-opacity="0.5"/>
<circle cx="543.5" cy="223.5" r="0.5" fill="white" fill-opacity="0.5"/>
<circle cx="750.5" cy="168.5" r="0.5" fill="white" fill-opacity="0.4"/>
<circle cx="91.6424" cy="240.642" r="0.642424" fill="white" fill-opacity="0.5"/>
<circle cx="1119.67" cy="13.666" r="0.666017" fill="white" fill-opacity="0.4"/>
<circle cx="331.689" cy="170.689" r="0.688639" fill="white" fill-opacity="0.4"/>
<circle cx="1000.5" cy="301.5" r="0.5" fill="white" fill-opacity="0.5"/>
<circle cx="984.5" cy="367.5" r="0.5" fill="white" fill-opacity="0.4"/>
<circle cx="477.591" cy="356.591" r="0.590716" fill="white" fill-opacity="0.6"/>
<circle cx="3.5" cy="392.5" r="0.5" fill="white" fill-opacity="0.5"/>
<circle cx="305.5" cy="314.5" r="0.5" fill="white" fill-opacity="0.6"/>
<circle cx="291.73" cy="31.7303" r="0.730337" fill="white" fill-opacity="0.3"/>
<circle cx="780.643" cy="11.6427" r="0.642742" fill="white" fill-opacity="0.4"/>
<circle cx="530.5" cy="221.5" r="0.5" fill="white" fill-opacity="0.5"/>
<circle cx="246.5" cy="278.5" r="0.5" fill="white" fill-opacity="0.4"/>
<circle cx="821.5" cy="25.5" r="0.5" fill="white" fill-opacity="0.4"/>
<circle cx="304.557" cy="66.5567" r="0.556701" fill="white" fill-opacity="0.5"/>
<circle cx="561.554" cy="287.554" r="0.554277" fill="white" fill-opacity="0.5"/>
<circle cx="422.5" cy="284.5" r="0.5" fill="white" fill-opacity="0.4"/>
<circle cx="123.679" cy="55.6794" r="0.679389" fill="white" fill-opacity="0.6"/>
<circle cx="347.5" cy="169.5" r="0.5" fill="white" fill-opacity="0.5"/>
<circle cx="806.5" cy="137.5" r="0.5" fill="white" fill-opacity="0.5"/>
<circle cx="516.701" cy="161.701" r="0.700981" fill="white" fill-opacity="0.5"/>
<circle cx="802.5" cy="304.5" r="0.5" fill="white" fill-opacity="0.4"/>
<circle cx="295.5" cy="325.5" r="0.5" fill="white" fill-opacity="0.6"/>
<circle cx="645.5" cy="86.5" r="0.5" fill="white" fill-opacity="0.5"/>
<circle cx="369.686" cy="53.6862" r="0.686183" fill="white" fill-opacity="0.4"/>
<circle cx="416.713" cy="157.713" r="0.712693" fill="white" fill-opacity="0.3"/>
<circle cx="297.647" cy="269.647" r="0.647229" fill="white" fill-opacity="0.4"/>
<circle cx="432.594" cy="317.594" r="0.593507" fill="white" fill-opacity="0.4"/>
<circle cx="186.623" cy="98.6232" r="0.623172" fill="white" fill-opacity="0.3"/>
<circle cx="727.586" cy="42.5856" r="0.585558" fill="white" fill-opacity="0.5"/>
<circle cx="990.5" cy="165.5" r="0.5" fill="white" fill-opacity="0.4"/>
<circle cx="131.611" cy="34.6111" r="0.611064" fill="white" fill-opacity="0.4"/>
<circle cx="356.5" cy="238.5" r="0.5" fill="white" fill-opacity="0.4"/>
<circle cx="37.5" cy="118.5" r="0.5" fill="white" fill-opacity="0.5"/>
<circle cx="213.677" cy="198.677" r="0.677244" fill="white" fill-opacity="0.6"/>
<circle cx="908.511" cy="64.5107" r="0.51071" fill="white" fill-opacity="0.4"/>
<circle cx="454.5" cy="299.5" r="0.5" fill="white" fill-opacity="0.5"/>
<circle cx="470.5" cy="340.5" r="0.5" fill="white" fill-opacity="0.5"/>
<circle cx="23.7062" cy="262.706" r="0.706205" fill="white" fill-opacity="0.4"/>
<circle cx="402.5" cy="122.5" r="0.5" fill="white" fill-opacity="0.5"/>
<circle cx="380.614" cy="109.614" r="0.614026" fill="white" fill-opacity="0.5"/>
<circle cx="582.5" cy="63.5" r="0.5" fill="white" fill-opacity="0.4"/>
<circle cx="1085.5" cy="25.5" r="0.5" fill="white" fill-opacity="0.5"/>
<circle cx="82.5" cy="356.5" r="0.5" fill="white" fill-opacity="0.4"/>
<circle cx="12.5" cy="309.5" r="0.5" fill="white" fill-opacity="0.4"/>
<circle cx="969.5" cy="348.5" r="0.5" fill="white" fill-opacity="0.4"/>
<circle cx="443.5" cy="113.5" r="0.5" fill="white" fill-opacity="0.5"/>
<circle cx="659.5" cy="158.5" r="0.5" fill="white" fill-opacity="0.5"/>
<circle cx="386.559" cy="91.5594" r="0.559374" fill="white" fill-opacity="0.4"/>
<circle cx="981.5" cy="75.5" r="0.5" fill="white" fill-opacity="0.4"/>
<circle cx="381.5" cy="368.5" r="0.5" fill="white" fill-opacity="0.5"/>
<circle cx="443.642" cy="201.642" r="0.642402" fill="white" fill-opacity="0.4"/>
<circle cx="1071.74" cy="306.738" r="0.738119" fill="white" fill-opacity="0.3"/>
<circle cx="750.5" cy="232.5" r="0.5" fill="white" fill-opacity="0.3"/>
<circle cx="1003.65" cy="166.65" r="0.650388" fill="white" fill-opacity="0.4"/>
<circle cx="175.723" cy="1.72251" r="0.722506" fill="white" fill-opacity="0.4"/>
<circle cx="350.5" cy="248.5" r="0.5" fill="white" fill-opacity="0.4"/>
<circle cx="1061.5" cy="261.5" r="0.5" fill="white" fill-opacity="0.4"/>
<circle cx="1077.5" cy="154.5" r="0.5" fill="white" fill-opacity="0.6"/>
<circle cx="403.693" cy="269.693" r="0.69268" fill="white" fill-opacity="0.3"/>
<circle cx="771.5" cy="120.5" r="0.5" fill="white" fill-opacity="0.5"/>
<circle cx="407.5" cy="350.5" r="0.5" fill="white" fill-opacity="0.6"/>
<circle cx="369.5" cy="391.5" r="0.5" fill="white" fill-opacity="0.5"/>
<circle cx="846.5" cy="89.5" r="0.5" fill="white" fill-opacity="0.6"/>
<circle cx="647.506" cy="0.505851" r="0.505851" fill="white" fill-opacity="0.6"/>
<circle cx="263.672" cy="99.6723" r="0.672336" fill="white" fill-opacity="0.4"/>
<circle cx="0.572293" cy="103.572" r="0.572293" fill="white" fill-opacity="0.5"/>
<circle cx="929.5" cy="255.5" r="0.5" fill="white" fill-opacity="0.4"/>
<circle cx="462.731" cy="8.73054" r="0.730537" fill="white" fill-opacity="0.6"/>
<circle cx="963.5" cy="383.5" r="0.5" fill="white" fill-opacity="0.3"/>
<circle cx="857.5" cy="351.5" r="0.5" fill="white" fill-opacity="0.3"/>
<circle cx="712.5" cy="337.5" r="0.5" fill="white" fill-opacity="0.3"/>
<circle cx="488.5" cy="113.5" r="0.5" fill="white" fill-opacity="0.4"/>
<g filter="url(#filter2_d_7677_106533)">
<circle cx="141.71" cy="309.71" r="0.709717" fill="white" fill-opacity="0.6" shape-rendering="crispEdges"/>
</g>
<circle cx="1017.5" cy="270.5" r="0.5" fill="white" fill-opacity="0.4"/>
<circle cx="191.542" cy="30.542" r="0.542016" fill="white" fill-opacity="0.5"/>
<circle cx="855.5" cy="336.5" r="0.5" fill="white" fill-opacity="0.5"/>
<circle cx="74.5524" cy="249.552" r="0.552424" fill="white" fill-opacity="0.3"/>
<circle cx="675.527" cy="341.527" r="0.527252" fill="white" fill-opacity="0.5"/>
<circle cx="786.5" cy="357.5" r="0.5" fill="white" fill-opacity="0.4"/>
<circle cx="440.5" cy="65.5" r="0.5" fill="white" fill-opacity="0.4"/>
<circle cx="349.67" cy="302.67" r="0.669935" fill="white" fill-opacity="0.4"/>
<circle cx="956.5" cy="137.5" r="0.5" fill="white" fill-opacity="0.6"/>
<circle cx="563.5" cy="336.5" r="0.5" fill="white" fill-opacity="0.4"/>
<circle cx="569.5" cy="365.5" r="0.5" fill="white" fill-opacity="0.4"/>
<circle cx="588.56" cy="291.56" r="0.560416" fill="white" fill-opacity="0.5"/>
<circle cx="484.609" cy="217.609" r="0.609416" fill="white" fill-opacity="0.5"/>
<circle cx="488.5" cy="306.5" r="0.5" fill="white" fill-opacity="0.6"/>
<circle cx="197.519" cy="378.519" r="0.519013" fill="white" fill-opacity="0.4"/>
<circle cx="499.555" cy="248.554" r="0.554496" fill="white" fill-opacity="0.5"/>
<circle cx="747.5" cy="242.5" r="0.5" fill="white" fill-opacity="0.5"/>
<circle cx="678.5" cy="296.5" r="0.5" fill="white" fill-opacity="0.4"/>
<circle cx="471.681" cy="16.6815" r="0.681498" fill="white" fill-opacity="0.3"/>
<circle cx="980.5" cy="251.5" r="0.5" fill="white" fill-opacity="0.4"/>
<circle cx="410.749" cy="332.749" r="0.748859" fill="white" fill-opacity="0.5"/>
<circle cx="505.677" cy="340.677" r="0.677196" fill="white" fill-opacity="0.4"/>
<circle cx="960.575" cy="317.575" r="0.575012" fill="white" fill-opacity="0.5"/>
<circle cx="643.5" cy="61.5" r="0.5" fill="white" fill-opacity="0.6"/>
<circle cx="34.5" cy="306.5" r="0.5" fill="white" fill-opacity="0.3"/>
<circle cx="500.565" cy="300.565" r="0.565393" fill="white" fill-opacity="0.4"/>
<circle cx="212.5" cy="35.5" r="0.5" fill="white" fill-opacity="0.6"/>
<circle cx="909.713" cy="75.7127" r="0.712746" fill="white" fill-opacity="0.3"/>
<circle cx="660.622" cy="303.622" r="0.622186" fill="white" fill-opacity="0.4"/>
<circle cx="812.621" cy="250.621" r="0.620681" fill="white" fill-opacity="0.6"/>
<circle cx="989.662" cy="78.6623" r="0.66231" fill="white" fill-opacity="0.3"/>
<circle cx="748.672" cy="31.6717" r="0.671731" fill="white" fill-opacity="0.4"/>
<circle cx="754.5" cy="178.5" r="0.5" fill="white" fill-opacity="0.4"/>
<circle cx="938.5" cy="131.5" r="0.5" fill="white" fill-opacity="0.6"/>
<circle cx="221.564" cy="41.5641" r="0.564078" fill="white" fill-opacity="0.6"/>
<circle cx="391.658" cy="211.658" r="0.657687" fill="white" fill-opacity="0.3"/>
<circle cx="398.5" cy="89.5" r="0.5" fill="white" fill-opacity="0.4"/>
<circle cx="167.712" cy="68.7117" r="0.711736" fill="white" fill-opacity="0.4"/>
<circle cx="171.5" cy="207.5" r="0.5" fill="white" fill-opacity="0.6"/>
<circle cx="161.5" cy="232.5" r="0.5" fill="white" fill-opacity="0.6"/>
<circle cx="726.634" cy="29.6336" r="0.633596" fill="white" fill-opacity="0.5"/>
<circle cx="163.5" cy="365.5" r="0.5" fill="white" fill-opacity="0.5"/>
<circle cx="257.59" cy="108.59" r="0.589996" fill="white" fill-opacity="0.3"/>
<circle cx="107.662" cy="131.662" r="0.66174" fill="white" fill-opacity="0.4"/>
<circle cx="1051.5" cy="206.5" r="0.5" fill="white" fill-opacity="0.5"/>
<circle cx="1085.54" cy="220.537" r="0.536753" fill="white" fill-opacity="0.5"/>
<circle cx="757.543" cy="367.543" r="0.542659" fill="white" fill-opacity="0.3"/>
<circle cx="894.543" cy="189.543" r="0.543095" fill="white" fill-opacity="0.5"/>
<circle cx="172.5" cy="151.5" r="0.5" fill="white" fill-opacity="0.3"/>
<circle cx="0.581512" cy="241.582" r="0.581512" fill="white" fill-opacity="0.6"/>
<circle cx="80.6148" cy="139.615" r="0.61477" fill="white" fill-opacity="0.6"/>
<circle cx="777.5" cy="52.5" r="0.5" fill="white" fill-opacity="0.5"/>
<circle cx="527.72" cy="107.72" r="0.719608" fill="white" fill-opacity="0.5"/>
<circle cx="1065.58" cy="249.579" r="0.579026" fill="white" fill-opacity="0.6"/>
<circle cx="321.5" cy="306.5" r="0.5" fill="white" fill-opacity="0.3"/>
<circle cx="539.5" cy="203.5" r="0.5" fill="white" fill-opacity="0.4"/>
<circle cx="973.5" cy="127.5" r="0.5" fill="white" fill-opacity="0.4"/>
<circle cx="842.644" cy="124.644" r="0.644424" fill="white" fill-opacity="0.4"/>
<circle cx="391.5" cy="47.5" r="0.5" fill="white" fill-opacity="0.6"/>
<circle cx="871.598" cy="289.598" r="0.598435" fill="white" fill-opacity="0.6"/>
<circle cx="348.5" cy="55.5" r="0.5" fill="white" fill-opacity="0.5"/>
<circle cx="818.529" cy="359.529" r="0.528804" fill="white" fill-opacity="0.5"/>
<circle cx="163.744" cy="155.744" r="0.743789" fill="white" fill-opacity="0.4"/>
<circle cx="5.66795" cy="108.668" r="0.667952" fill="white" fill-opacity="0.5"/>
<circle cx="782.728" cy="134.728" r="0.728148" fill="white" fill-opacity="0.4"/>
<circle cx="675.58" cy="372.58" r="0.579901" fill="white" fill-opacity="0.6"/>
<circle cx="482.5" cy="215.5" r="0.5" fill="white" fill-opacity="0.6"/>
<circle cx="726.5" cy="273.5" r="0.5" fill="white" fill-opacity="0.6"/>
<circle cx="731.692" cy="365.692" r="0.691774" fill="white" fill-opacity="0.6"/>
<circle cx="205.702" cy="41.7024" r="0.702448" fill="white" fill-opacity="0.4"/>
<circle cx="95.6968" cy="146.697" r="0.696776" fill="white" fill-opacity="0.6"/>
<circle cx="121.5" cy="249.5" r="0.5" fill="white" fill-opacity="0.4"/>
<circle cx="181.702" cy="171.702" r="0.701738" fill="white" fill-opacity="0.3"/>
<circle cx="338.5" cy="197.5" r="0.5" fill="white" fill-opacity="0.4"/>
<circle cx="746.5" cy="309.5" r="0.5" fill="white" fill-opacity="0.6"/>
<circle cx="527.715" cy="24.7146" r="0.714554" fill="white" fill-opacity="0.4"/>
<circle cx="314.5" cy="178.5" r="0.5" fill="white" fill-opacity="0.3"/>
<circle cx="607.5" cy="142.5" r="0.5" fill="white" fill-opacity="0.5"/>
<circle cx="431.651" cy="373.651" r="0.65105" fill="white" fill-opacity="0.5"/>
<circle cx="58.5" cy="198.5" r="0.5" fill="white" fill-opacity="0.6"/>
<circle cx="131.618" cy="152.618" r="0.618183" fill="white" fill-opacity="0.4"/>
<circle cx="549.5" cy="313.5" r="0.5" fill="white" fill-opacity="0.5"/>
<circle cx="51.5" cy="248.5" r="0.5" fill="white" fill-opacity="0.6"/>
<circle cx="252.5" cy="344.5" r="0.5" fill="white" fill-opacity="0.4"/>
<circle cx="355.541" cy="286.541" r="0.541229" fill="white" fill-opacity="0.6"/>
<defs>
<filter id="filter0_d_7677_106533" x="1101" y="97" width="31" height="31" filterUnits="userSpaceOnUse" color-interpolation-filters="sRGB">
<feFlood flood-opacity="0" result="BackgroundImageFix"/>
<feColorMatrix in="SourceAlpha" type="matrix" values="0 0 0 0 0 0 0 0 0 0 0 0 0 0 0 0 0 0 127 0" result="hardAlpha"/>
<feMorphology radius="3" operator="dilate" in="SourceAlpha" result="effect1_dropShadow_7677_106533"/>
<feOffset/>
<feGaussianBlur stdDeviation="6"/>
<feComposite in2="hardAlpha" operator="out"/>
<feColorMatrix type="matrix" values="0 0 0 0 1 0 0 0 0 1 0 0 0 0 1 0 0 0 0.3 0"/>
<feBlend mode="normal" in2="BackgroundImageFix" result="effect1_dropShadow_7677_106533"/>
<feBlend mode="normal" in="SourceGraphic" in2="effect1_dropShadow_7677_106533" result="shape"/>
</filter>
<filter id="filter1_d_7677_106533" x="23" y="69" width="31.293" height="31.2932" filterUnits="userSpaceOnUse" color-interpolation-filters="sRGB">
<feFlood flood-opacity="0" result="BackgroundImageFix"/>
<feColorMatrix in="SourceAlpha" type="matrix" values="0 0 0 0 0 0 0 0 0 0 0 0 0 0 0 0 0 0 127 0" result="hardAlpha"/>
<feMorphology radius="3" operator="dilate" in="SourceAlpha" result="effect1_dropShadow_7677_106533"/>
<feOffset/>
<feGaussianBlur stdDeviation="6"/>
<feComposite in2="hardAlpha" operator="out"/>
<feColorMatrix type="matrix" values="0 0 0 0 1 0 0 0 0 1 0 0 0 0 1 0 0 0 0.3 0"/>
<feBlend mode="normal" in2="BackgroundImageFix" result="effect1_dropShadow_7677_106533"/>
<feBlend mode="normal" in="SourceGraphic" in2="effect1_dropShadow_7677_106533" result="shape"/>
</filter>
<filter id="filter2_d_7677_106533" x="126" y="294" width="31.4199" height="31.4194" filterUnits="userSpaceOnUse" color-interpolation-filters="sRGB">
<feFlood flood-opacity="0" result="BackgroundImageFix"/>
<feColorMatrix in="SourceAlpha" type="matrix" values="0 0 0 0 0 0 0 0 0 0 0 0 0 0 0 0 0 0 127 0" result="hardAlpha"/>
<feMorphology radius="3" operator="dilate" in="SourceAlpha" result="effect1_dropShadow_7677_106533"/>
<feOffset/>
<feGaussianBlur stdDeviation="6"/>
<feComposite in2="hardAlpha" operator="out"/>
<feColorMatrix type="matrix" values="0 0 0 0 1 0 0 0 0 1 0 0 0 0 1 0 0 0 0.3 0"/>
<feBlend mode="normal" in2="BackgroundImageFix" result="effect1_dropShadow_7677_106533"/>
<feBlend mode="normal" in="SourceGraphic" in2="effect1_dropShadow_7677_106533" result="shape"/>
</filter>
</defs>
</svg>
